solid Raspberry_Pi_Case_with_128x32_OLED_0.91
facet normal 1.66378022470326e-12 -1.0 0.0
  outer loop
    vertex 1.4226730904454143e-12 -10.210626279102874 5.0
    vertex -0.9999999999985769 -10.210626279104536 0.0
    vertex 1.4226730904454143e-12 -10.210626279102874 0.0
  endloop
endfacet
facet normal 1.66378022470326e-12 -1.0 0.0
  outer loop
    vertex -0.9999999999985769 -10.210626279104536 0.0
    vertex 1.4226730904454143e-12 -10.210626279102874 5.0
    vertex -0.9999999999985769 -10.210626279104536 5.0
  endloop
endfacet
facet normal 0.0 0.0 1.0
  outer loop
    vertex -0.9999999999999996 -7.0 5.0
    vertex -5.0 -1.9999999999999991 5.0
    vertex -5.0 -7.0 5.0
  endloop
endfacet
facet normal 0.0 0.0 1.0
  outer loop
    vertex -5.0 -1.9999999999999991 5.0
    vertex -0.9999999999999996 -7.0 5.0
    vertex 0.0 -1.9999999999999991 5.0
  endloop
endfacet
facet normal 0.0 0.0 1.0
  outer loop
    vertex 0.0 -1.9999999999999991 5.0
    vertex -0.9999999999999996 -7.0 5.0
    vertex -0.9999999999985769 -10.210626279104536 5.0
  endloop
endfacet
facet normal 0.0 0.0 1.0
  outer loop
    vertex 0.0 -1.9999999999999991 5.0
    vertex -0.9999999999985769 -10.210626279104536 5.0
    vertex 1.4226730904454143e-12 -10.210626279102874 5.0
  endloop
endfacet
facet normal 1.0 0.0 0.0
  outer loop
    vertex 0.0 -1.9999999999999991 0.0
    vertex 1.4226730904454143e-12 -10.210626279102874 5.0
    vertex 1.4226730904454143e-12 -10.210626279102874 0.0
  endloop
endfacet
facet normal 1.0 0.0 0.0
  outer loop
    vertex 1.4226730904454143e-12 -10.210626279102874 5.0
    vertex 0.0 -1.9999999999999991 0.0
    vertex 0.0 -1.9999999999999991 5.0
  endloop
endfacet
facet normal -1.0 0.0 0.0
  outer loop
    vertex -5.0 -1.9999999999999991 5.0
    vertex -5.0 -7.0 0.0
    vertex -5.0 -7.0 5.0
  endloop
endfacet
facet normal -1.0 0.0 0.0
  outer loop
    vertex -5.0 -7.0 0.0
    vertex -5.0 -1.9999999999999991 5.0
    vertex -5.0 -1.9999999999999991 0.0
  endloop
endfacet
facet normal -1.0 0.0 0.0
  outer loop
    vertex -0.9999999999999996 -7.0 5.0
    vertex -0.9999999999985769 -10.210626279104536 0.0
    vertex -0.9999999999985769 -10.210626279104536 5.0
  endloop
endfacet
facet normal -1.0 0.0 0.0
  outer loop
    vertex -0.9999999999985769 -10.210626279104536 0.0
    vertex -0.9999999999999996 -7.0 5.0
    vertex -0.9999999999999996 -7.0 0.0
  endloop
endfacet
facet normal -0.0 -1.0 -0.0
  outer loop
    vertex -0.9999999999999996 -7.0 5.0
    vertex -5.0 -7.0 0.0
    vertex -0.9999999999999996 -7.0 0.0
  endloop
endfacet
facet normal -0.0 -1.0 -0.0
  outer loop
    vertex -5.0 -7.0 0.0
    vertex -0.9999999999999996 -7.0 5.0
    vertex -5.0 -7.0 5.0
  endloop
endfacet
facet normal 0.0 1.0 0.0
  outer loop
    vertex -5.0 -1.9999999999999991 5.0
    vertex 0.0 -1.9999999999999991 0.0
    vertex -5.0 -1.9999999999999991 0.0
  endloop
endfacet
facet normal 0.0 1.0 0.0
  outer loop
    vertex 0.0 -1.9999999999999991 0.0
    vertex -5.0 -1.9999999999999991 5.0
    vertex 0.0 -1.9999999999999991 5.0
  endloop
endfacet
facet normal 0.0 0.0 -1.0
  outer loop
    vertex 0.0 -1.9999999999999991 0.0
    vertex -5.0 -7.0 0.0
    vertex -5.0 -1.9999999999999991 0.0
  endloop
endfacet
facet normal 0.0 0.0 -1.0
  outer loop
    vertex -5.0 -7.0 0.0
    vertex 0.0 -1.9999999999999991 0.0
    vertex -0.9999999999999996 -7.0 0.0
  endloop
endfacet
facet normal 0.0 0.0 -1.0
  outer loop
    vertex -0.9999999999999996 -7.0 0.0
    vertex 0.0 -1.9999999999999991 0.0
    vertex -0.9999999999985769 -10.210626279104536 0.0
  endloop
endfacet
facet normal 0.0 0.0 -1.0
  outer loop
    vertex -0.9999999999985769 -10.210626279104536 0.0
    vertex 0.0 -1.9999999999999991 0.0
    vertex 1.4226730904454143e-12 -10.210626279102874 0.0
  endloop
endfacet
facet normal 0.0 0.0 -1.0
  outer loop
    vertex -7.8436924179725445 -9.861866430285552 0.0
    vertex -0.9999999999999996 -10.210626279104538 0.0
    vertex -8.632509091100728 -10.210626279117236 0.0
  endloop
endfacet
facet normal 0.0 0.0 -1.0
  outer loop
    vertex -0.9999999999999996 -10.210626279104538 0.0
    vertex -7.8436924179725445 -9.861866430285552 0.0
    vertex -7.030762031233556 -9.573752976454402 0.0
  endloop
endfacet
facet normal 0.0 0.0 -1.0
  outer loop
    vertex -0.9999999999999996 -10.210626279104538 0.0
    vertex -7.030762031233556 -9.573752976454402 0.0
    vertex -6.1983728625287915 -9.34793568795526 0.0
  endloop
endfacet
facet normal 0.0 0.0 -1.0
  outer loop
    vertex -0.9999999999999996 -10.210626279104538 0.0
    vertex -6.1983728625287915 -9.34793568795526 0.0
    vertex -5.351291266696974 -9.185707620207605 0.0
  endloop
endfacet
facet normal 0.0 0.0 -1.0
  outer loop
    vertex -0.9999999999999996 -10.210626279104538 0.0
    vertex -5.351291266696974 -9.185707620207605 0.0
    vertex -4.494367729081846 -9.087997709536843 0.0
  endloop
endfacet
facet normal 0.0 0.0 -1.0
  outer loop
    vertex -0.9999999999999996 -10.210626279104538 0.0
    vertex -4.494367729081846 -9.087997709536843 0.0
    vertex -3.6325090911026505 -9.055365453979498 0.0
  endloop
endfacet
facet normal 0.0 0.0 -1.0
  outer loop
    vertex -0.9999999999999996 -10.210626279104538 0.0
    vertex -3.6325090911026505 -9.055365453979498 0.0
    vertex -2.770650453123345 -9.087997709533974 0.0
  endloop
endfacet
facet normal 0.0 0.0 -1.0
  outer loop
    vertex -0.9999999999999996 -10.210626279104538 0.0
    vertex -2.770650453123345 -9.087997709533974 0.0
    vertex -1.9137269155078904 -9.185707620201887 0.0
  endloop
endfacet
facet normal 0.0 0.0 -1.0
  outer loop
    vertex -0.9999999999999996 -10.210626279104538 0.0
    vertex -1.9137269155078904 -9.185707620201887 0.0
    vertex -1.066645319675534 -9.347935687946723 0.0
  endloop
endfacet
facet normal 0.0 0.0 -1.0
  outer loop
    vertex -0.9999999999999996 -10.210626279104538 0.0
    vertex -1.066645319675534 -9.347935687946723 0.0
    vertex -0.9999999999999996 -9.355313139552269 0.0
  endloop
endfacet
facet normal -0.40437040862972157 0.9145953053808183 0.0
  outer loop
    vertex -8.632509091100728 -10.210626279117236 5.0
    vertex -7.8436924179725445 -9.861866430285552 0.0
    vertex -8.632509091100728 -10.210626279117236 0.0
  endloop
endfacet
facet normal -0.40437040862972157 0.9145953053808183 0.0
  outer loop
    vertex -7.8436924179725445 -9.861866430285552 0.0
    vertex -8.632509091100728 -10.210626279117236 5.0
    vertex -7.8436924179725445 -9.861866430285552 5.0
  endloop
endfacet
facet normal -0.3340538065023924 0.9425540060714094 0.0
  outer loop
    vertex -7.8436924179725445 -9.861866430285552 5.0
    vertex -7.030762031233556 -9.573752976454402 0.0
    vertex -7.8436924179725445 -9.861866430285552 0.0
  endloop
endfacet
facet normal -0.3340538065023924 0.9425540060714094 0.0
  outer loop
    vertex -7.030762031233556 -9.573752976454402 0.0
    vertex -7.8436924179725445 -9.861866430285552 5.0
    vertex -7.030762031233556 -9.573752976454402 5.0
  endloop
endfacet
facet normal -0.2618243743709235 0.965115535563113 0.0
  outer loop
    vertex -7.030762031233556 -9.573752976454402 5.0
    vertex -6.1983728625287915 -9.34793568795526 0.0
    vertex -7.030762031233556 -9.573752976454402 0.0
  endloop
endfacet
facet normal -0.2618243743709235 0.965115535563113 0.0
  outer loop
    vertex -6.1983728625287915 -9.34793568795526 0.0
    vertex -7.030762031233556 -9.573752976454402 5.0
    vertex -6.1983728625287915 -9.34793568795526 5.0
  endloop
endfacet
facet normal -0.18809570616022692 0.9821507039777987 0.0
  outer loop
    vertex -6.1983728625287915 -9.34793568795526 5.0
    vertex -5.351291266696974 -9.185707620207605 0.0
    vertex -6.1983728625287915 -9.34793568795526 0.0
  endloop
endfacet
facet normal -0.18809570616022692 0.9821507039777987 0.0
  outer loop
    vertex -5.351291266696974 -9.185707620207605 0.0
    vertex -6.1983728625287915 -9.34793568795526 5.0
    vertex -5.351291266696974 -9.185707620207605 5.0
  endloop
endfacet
facet normal -0.03783554373715013 0.9992839794723593 0.0
  outer loop
    vertex -4.494367729081846 -9.087997709536843 5.0
    vertex -3.6325090911026505 -9.055365453979498 0.0
    vertex -4.494367729081846 -9.087997709536843 0.0
  endloop
endfacet
facet normal -0.03783554373715013 0.9992839794723593 0.0
  outer loop
    vertex -3.6325090911026505 -9.055365453979498 0.0
    vertex -4.494367729081846 -9.087997709536843 5.0
    vertex -3.6325090911026505 -9.055365453979498 5.0
  endloop
endfacet
facet normal 0.18809570615695909 0.9821507039784246 0.0
  outer loop
    vertex -1.9137269155078904 -9.185707620201887 5.0
    vertex -1.066645319675534 -9.347935687946723 0.0
    vertex -1.9137269155078904 -9.185707620201887 0.0
  endloop
endfacet
facet normal 0.18809570615695909 0.9821507039784246 0.0
  outer loop
    vertex -1.066645319675534 -9.347935687946723 0.0
    vertex -1.9137269155078904 -9.185707620201887 5.0
    vertex -1.066645319675534 -9.347935687946723 5.0
  endloop
endfacet
facet normal 0.11002515523049498 0.9939288028910851 0.0
  outer loop
    vertex -1.066645319675534 -9.347935687946723 5.0
    vertex -0.9999999999999996 -9.355313139552269 0.0
    vertex -1.066645319675534 -9.347935687946723 0.0
  endloop
endfacet
facet normal 0.11002515523049498 0.9939288028910851 0.0
  outer loop
    vertex -0.9999999999999996 -9.355313139552269 0.0
    vertex -1.066645319675534 -9.347935687946723 5.0
    vertex -0.9999999999999996 -9.355313139552269 5.0
  endloop
endfacet
facet normal 0.037835543733824896 0.9992839794724852 0.0
  outer loop
    vertex -3.6325090911026505 -9.055365453979498 5.0
    vertex -2.770650453123345 -9.087997709533974 0.0
    vertex -3.6325090911026505 -9.055365453979498 0.0
  endloop
endfacet
facet normal 0.037835543733824896 0.9992839794724852 0.0
  outer loop
    vertex -2.770650453123345 -9.087997709533974 0.0
    vertex -3.6325090911026505 -9.055365453979498 5.0
    vertex -2.770650453123345 -9.087997709533974 5.0
  endloop
endfacet
facet normal 0.11328998058783378 0.9935619660083654 0.0
  outer loop
    vertex -2.770650453123345 -9.087997709533974 5.0
    vertex -1.9137269155078904 -9.185707620201887 0.0
    vertex -2.770650453123345 -9.087997709533974 0.0
  endloop
endfacet
facet normal 0.11328998058783378 0.9935619660083654 0.0
  outer loop
    vertex -1.9137269155078904 -9.185707620201887 0.0
    vertex -2.770650453123345 -9.087997709533974 5.0
    vertex -1.9137269155078904 -9.185707620201887 5.0
  endloop
endfacet
facet normal -0.11328998059113955 0.9935619660079886 0.0
  outer loop
    vertex -5.351291266696974 -9.185707620207605 5.0
    vertex -4.494367729081846 -9.087997709536843 0.0
    vertex -5.351291266696974 -9.185707620207605 0.0
  endloop
endfacet
facet normal -0.11328998059113955 0.9935619660079886 0.0
  outer loop
    vertex -4.494367729081846 -9.087997709536843 0.0
    vertex -5.351291266696974 -9.185707620207605 5.0
    vertex -4.494367729081846 -9.087997709536843 5.0
  endloop
endfacet
facet normal 0.0 0.0 1.0
  outer loop
    vertex -0.9999999999999996 -10.210626279104538 5.0
    vertex -7.8436924179725445 -9.861866430285552 5.0
    vertex -8.632509091100728 -10.210626279117236 5.0
  endloop
endfacet
facet normal 0.0 0.0 1.0
  outer loop
    vertex -7.8436924179725445 -9.861866430285552 5.0
    vertex -0.9999999999999996 -10.210626279104538 5.0
    vertex -7.030762031233556 -9.573752976454402 5.0
  endloop
endfacet
facet normal 0.0 0.0 1.0
  outer loop
    vertex -7.030762031233556 -9.573752976454402 5.0
    vertex -0.9999999999999996 -10.210626279104538 5.0
    vertex -6.1983728625287915 -9.34793568795526 5.0
  endloop
endfacet
facet normal 0.0 0.0 1.0
  outer loop
    vertex -6.1983728625287915 -9.34793568795526 5.0
    vertex -0.9999999999999996 -10.210626279104538 5.0
    vertex -5.351291266696974 -9.185707620207605 5.0
  endloop
endfacet
facet normal 0.0 0.0 1.0
  outer loop
    vertex -5.351291266696974 -9.185707620207605 5.0
    vertex -0.9999999999999996 -10.210626279104538 5.0
    vertex -4.494367729081846 -9.087997709536843 5.0
  endloop
endfacet
facet normal 0.0 0.0 1.0
  outer loop
    vertex -4.494367729081846 -9.087997709536843 5.0
    vertex -0.9999999999999996 -10.210626279104538 5.0
    vertex -3.6325090911026505 -9.055365453979498 5.0
  endloop
endfacet
facet normal 0.0 0.0 1.0
  outer loop
    vertex -3.6325090911026505 -9.055365453979498 5.0
    vertex -0.9999999999999996 -10.210626279104538 5.0
    vertex -2.770650453123345 -9.087997709533974 5.0
  endloop
endfacet
facet normal 0.0 0.0 1.0
  outer loop
    vertex -2.770650453123345 -9.087997709533974 5.0
    vertex -0.9999999999999996 -10.210626279104538 5.0
    vertex -1.9137269155078904 -9.185707620201887 5.0
  endloop
endfacet
facet normal 0.0 0.0 1.0
  outer loop
    vertex -1.9137269155078904 -9.185707620201887 5.0
    vertex -0.9999999999999996 -10.210626279104538 5.0
    vertex -1.066645319675534 -9.347935687946723 5.0
  endloop
endfacet
facet normal 0.0 0.0 1.0
  outer loop
    vertex -1.066645319675534 -9.347935687946723 5.0
    vertex -0.9999999999999996 -10.210626279104538 5.0
    vertex -0.9999999999999996 -9.355313139552269 5.0
  endloop
endfacet
facet normal 1.6635288521930624e-12 -1.0 0.0
  outer loop
    vertex -0.9999999999999996 -10.210626279104538 5.0
    vertex -8.632509091100728 -10.210626279117236 0.0
    vertex -0.9999999999999996 -10.210626279104538 0.0
  endloop
endfacet
facet normal 1.6635288521930624e-12 -1.0 0.0
  outer loop
    vertex -8.632509091100728 -10.210626279117236 0.0
    vertex -0.9999999999999996 -10.210626279104538 5.0
    vertex -8.632509091100728 -10.210626279117236 5.0
  endloop
endfacet
facet normal 1.0 0.0 0.0
  outer loop
    vertex -0.9999999999999996 -9.355313139552269 0.0
    vertex -0.9999999999999996 -10.210626279104538 5.0
    vertex -0.9999999999999996 -10.210626279104538 0.0
  endloop
endfacet
facet normal 1.0 0.0 0.0
  outer loop
    vertex -0.9999999999999996 -10.210626279104538 5.0
    vertex -0.9999999999999996 -9.355313139552269 0.0
    vertex -0.9999999999999996 -9.355313139552269 5.0
  endloop
endfacet
endsolid Raspberry_Pi_Case_with_128x32_OLED_0.91
